<svg height="512" viewBox="0 0 64 64" width="512" xmlns="http://www.w3.org/2000/svg"><g id="vb-file"><path d="m61 7v54h-40v-4h36v-42l-8-8z" fill="#78b9eb"/><path d="m3 22h50v20h-50z" fill="#78b9eb"/><g fill="#006df0"><path d="m61 6h-11.59l-3.7-3.71a1.033 1.033 0 0 0 -.71-.29h-28a1 1 0 0 0 -1 1v18h-13a1 1 0 0 0 -1 1v20a1 1 0 0 0 1 1h13v14a1 1 0 0 0 1 1h3v3a1 1 0 0 0 1 1h40a1 1 0 0 0 1-1v-54a1 1 0 0 0 -1-1zm-15-.59 8.59 8.59h-7.59a1 1 0 0 1 -1-1zm-42 35.59v-18h48v18zm14 15v-13h35a1 1 0 0 0 1-1v-20a1 1 0 0 0 -1-1h-35v-17h26v9a3.009 3.009 0 0 0 3 3h9v40zm42 4h-38v-2h35a1 1 0 0 0 1-1v-42a1.033 1.033 0 0 0 -.29-.71l-6.3-6.29h8.59z"/><path d="m26 25h-3v2h1.613l-2.613 7.838-2.613-7.838h1.613v-2h-3a1 1 0 0 0 -.949 1.316l4 12a1 1 0 0 0 1.9 0l4-12a1 1 0 0 0 -.951-1.316z"/><path d="m39 28a3.009 3.009 0 0 0 -3-3h-6a1 1 0 0 0 -1 1v12a1 1 0 0 0 1 1h6a3.009 3.009 0 0 0 3-3v-2a2.974 2.974 0 0 0 -.78-2 2.974 2.974 0 0 0 .78-2zm-2 8a1 1 0 0 1 -1 1h-5v-4h5a1 1 0 0 1 1 1zm0-6a1 1 0 0 1 -1 1h-5v-4h5a1 1 0 0 1 1 1z"/></g></g></svg>